<svg width="12" height="10" viewBox="0 0 12 10" fill="none" xmlns="http://www.w3.org/2000/svg">
<path d="M11 1.00455C10.5647 1.3105 10.0828 1.5445 9.57273 1.69754C9.29897 1.38389 8.93515 1.16158 8.53047 1.06068C8.12579 0.959787 7.69977 0.985167 7.31004 1.13339C6.9203 1.28162 6.58566 1.54554 6.35136 1.88946C6.11706 2.23337 5.99441 2.6407 6 3.05634V3.50927C5.2012 3.52991 4.40967 3.35338 3.69591 2.99539C2.98216 2.63741 2.36833 2.10909 1.90909 1.45749C1.90909 1.45749 0.0909091 5.53388 4.18182 7.34561C3.24569 7.97879 2.13053 8.29628 1 8.25147C5.09091 10.5161 10.0909 8.25147 10.0909 3.04275C10.0905 2.91659 10.0783 2.79074 10.0545 2.66682C10.5185 2.21094 10.8458 1.63536 11 1.00455V1.00455Z" stroke="#6A7581" stroke-linecap="round" stroke-linejoin="bevel"/>
</svg>
