<svg width="14" height="10" viewBox="0 0 14 10" fill="none" xmlns="http://www.w3.org/2000/svg">
<path d="M8.63636 2H10.2727C10.6309 2 10.9855 2.07163 11.3164 2.2108C11.6473 2.34996 11.9479 2.55394 12.2012 2.81109C12.4545 3.06824 12.6553 3.37351 12.7924 3.70949C12.9295 4.04547 13 4.40557 13 4.76923C13 5.13289 12.9295 5.49299 12.7924 5.82897C12.6553 6.16495 12.4545 6.47023 12.2012 6.72737C11.9479 6.98452 11.6473 7.1885 11.3164 7.32767C10.9855 7.46683 10.6309 7.53846 10.2727 7.53846H8.63636M5.36364 7.53846H3.72727C3.36912 7.53846 3.01448 7.46683 2.68359 7.32767C2.3527 7.1885 2.05205 6.98452 1.7988 6.72737C1.28734 6.20804 1 5.50368 1 4.76923C1 4.03479 1.28734 3.33042 1.7988 2.81109C2.31026 2.29176 3.00396 2 3.72727 2H5.36364" stroke="#ED4763" stroke-linecap="round" stroke-linejoin="round"/>
<path d="M4.69231 4.76921H9.30769" stroke="#ED4763" stroke-linecap="round" stroke-linejoin="round"/>
</svg>
